<?xml version="1.0" encoding="UTF-8"?>
<svg id="Layer_2" data-name="Layer 2" xmlns="http://www.w3.org/2000/svg" viewBox="0 0 898.91 621.13">
  <defs>
    <style>
      .cls-1 {
        fill: #fff;
      }
    </style>
  </defs>
  <g id="Layer_1-2" data-name="Layer 1">
    <path d="m351.15,562.61c-68.29-49.1-115.82-125.27-126.91-212.79-1.65-12.92-2.49-26.08-2.49-39.44,0-8.78.36-17.48,1.09-26.08,5.24-63.07,29.33-120.77,66.63-167.49,34.2-42.85,79.52-76.45,131.59-96.42C386.71,7.3,349.44.13,310.5.13,139.02.13,0,139.15,0,310.63s139.02,310.5,310.5,310.5c39.18,0,76.68-7.26,111.2-20.51-25.26-9.63-48.95-22.46-70.55-38.01Z"/>
    <path class="cls-1" d="m351.15,562.61c-13.32,2.15-26.98,3.27-40.9,3.27-107.75,0-199.85-66.95-236.98-161.52,22.31-27.69,81.41-46.09,150.97-54.54,11.09,87.52,58.62,163.69,126.91,212.79Z"/>
    <path class="cls-1" d="m289.47,116.81c-37.3,46.72-61.39,104.42-66.63,167.49-12.64-17.57-20.09-39.13-20.09-62.42,0-52.15,37.32-95.6,86.72-105.07Z"/>
    <g>
      <circle cx="588.41" cy="310.5" r="310.5"/>
      <path class="cls-1" d="m825.33,403.76c-37.01,94.82-129.25,161.99-237.17,161.99s-199.85-66.95-236.98-161.52c22.97-28.51,84.93-47.17,157.15-55.26,22.62,16.23,50.36,25.78,80.33,25.78s58.55-9.84,81.36-26.52c71.21,7.45,132.21,25.72,155.31,55.53Z"/>
      <circle class="cls-1" cx="587.66" cy="221.75" r="107"/>
    </g>
  </g>
</svg>