<?xml version="1.0" encoding="UTF-8"?>
<svg id="Layer_2" data-name="Layer 2" xmlns="http://www.w3.org/2000/svg" viewBox="0 0 704 704">
  <defs>
    <style>
      .cls-1 {
        fill: red;
      }
    </style>
  </defs>
  <g id="Layer_1-2" data-name="Layer 1">
    <g>
      <path d="m352,703.5c-93.89,0-182.16-36.56-248.55-102.95C37.06,534.16.5,445.89.5,352S37.06,169.84,103.45,103.45C169.84,37.06,258.11.5,352,.5s182.16,36.56,248.55,102.95,102.95,154.66,102.95,248.55-36.56,182.16-102.95,248.55-154.66,102.95-248.55,102.95Z"/>
      <path d="m352,1c47.39,0,93.35,9.28,136.62,27.58,41.8,17.68,79.33,42.99,111.57,75.22,32.24,32.24,57.54,69.77,75.22,111.57,18.3,43.27,27.58,89.24,27.58,136.62s-9.28,93.35-27.58,136.62c-17.68,41.8-42.99,79.33-75.22,111.57s-69.77,57.54-111.57,75.22c-43.27,18.3-89.24,27.58-136.62,27.58s-93.35-9.28-136.62-27.58c-41.8-17.68-79.33-42.99-111.57-75.22s-57.54-69.77-75.22-111.57C10.28,445.35,1,399.39,1,352s9.28-93.35,27.58-136.62c17.68-41.8,42.99-79.33,75.22-111.57,32.24-32.24,69.77-57.54,111.57-75.22C258.65,10.28,304.61,1,352,1m0-1C157.6,0,0,157.6,0,352s157.6,352,352,352,352-157.6,352-352S546.4,0,352,0h0Z"/>
    </g>
    <circle class="cls-1" cx="352" cy="352" r="155.5"/>
  </g>
</svg>